<?xml version="1.0" encoding="iso-8859-1"?>
<!-- Generator: Adobe Illustrator 19.1.0, SVG Export Plug-In . SVG Version: 6.00 Build 0)  -->
<svg version="1.1" id="Capa_1" xmlns="http://www.w3.org/2000/svg" xmlns:xlink="http://www.w3.org/1999/xlink" x="0px" y="0px"
	 viewBox="0 0 297.659 297.659" style="enable-background:new 0 0 297.659 297.659;" xml:space="preserve">
<g>
	<g>
		<path d="M203.927,297.659H89.535c-47.604,0-89.359-43.33-89.359-92.726V96.885C0.177,42.552,42.735,0,97.068,0h60.252
			c42.443,0,89.044,47.019,89.044,89.841v7.969c0,6.099,5.244,10.199,13.053,10.199h12.5c25.566,0,25.566,20.862,25.566,27.719
			v68.369C297.489,254.811,254.641,297.659,203.927,297.659z M97.068,12.854c-47.122,0-84.037,36.909-84.037,84.031v108.054
			c0,41.8,36.466,79.873,76.505,79.873h114.391c43.747,0,80.708-36.961,80.708-80.715v-68.369c0-11.53-2.847-14.865-12.712-14.865
			h-12.5c-17.005,0-25.907-11.6-25.907-23.053v-7.969c0-35.977-40.585-76.987-76.19-76.987
			C157.326,12.854,97.068,12.854,97.068,12.854z M199.794,223.872H97.068c-12.687,0-23.002-10.321-23.002-23.008
			c0-12.68,10.315-22.995,23.002-22.995h102.727c12.68,0,22.995,10.315,22.995,22.995
			C222.796,213.551,212.474,223.872,199.794,223.872z M97.068,190.723c-5.501,0-10.148,4.647-10.148,10.142
			c0,5.598,4.55,10.154,10.148,10.154h102.727c5.495,0,10.142-4.653,10.142-10.154c0-5.591-4.55-10.142-10.142-10.142H97.068z
			 M148.765,120.863H97.068c-12.687,0-23.002-10.321-23.002-23.008c0-12.68,10.315-22.989,23.002-22.989h51.697
			c12.687,0,23.002,10.309,23.002,22.989C171.767,110.542,161.452,120.863,148.765,120.863z M97.068,87.72
			c-5.501,0-10.148,4.64-10.148,10.135c0,5.598,4.55,10.154,10.148,10.154h51.697c5.501,0,10.148-4.653,10.148-10.154
			c0-5.591-4.55-10.135-10.148-10.135H97.068z"/>
	</g>
</g>
<g>
</g>
<g>
</g>
<g>
</g>
<g>
</g>
<g>
</g>
<g>
</g>
<g>
</g>
<g>
</g>
<g>
</g>
<g>
</g>
<g>
</g>
<g>
</g>
<g>
</g>
<g>
</g>
<g>
</g>
</svg>
